<svg width="10" height="10" viewBox="0 0 10 10" fill="none" xmlns="http://www.w3.org/2000/svg">
<path d="M8.41372 3.63041C8.39006 3.57331 8.35001 3.5245 8.29862 3.49017C8.24723 3.45583 8.18681 3.4375 8.125 3.4375H1.875C1.81319 3.4375 1.75277 3.45583 1.70138 3.49017C1.64999 3.5245 1.60994 3.57331 1.58629 3.63041C1.56263 3.68752 1.55645 3.75035 1.56851 3.81097C1.58056 3.87159 1.61033 3.92727 1.65404 3.97098L4.77904 7.09597C4.80805 7.12499 4.8425 7.14801 4.88041 7.16371C4.91833 7.17942 4.95896 7.1875 5 7.1875C5.04104 7.1875 5.08168 7.17942 5.11959 7.16371C5.1575 7.14801 5.19195 7.12499 5.22097 7.09597L8.34597 3.97098C8.38968 3.92727 8.41944 3.87159 8.4315 3.81097C8.44356 3.75035 8.43737 3.68751 8.41372 3.63041Z" fill="white"/>
</svg>
