<svg width="10" height="10" viewBox="0 0 10 10" fill="none" xmlns="http://www.w3.org/2000/svg">
<path d="M8.34597 6.02902L5.22097 2.90402C5.16236 2.84542 5.08288 2.8125 5 2.8125C4.91712 2.8125 4.83764 2.84542 4.77904 2.90402L1.65404 6.02902C1.61033 6.07273 1.58057 6.12841 1.56851 6.18903C1.55645 6.24965 1.56263 6.31248 1.58629 6.36958C1.60994 6.42669 1.64999 6.47549 1.70138 6.50983C1.75278 6.54417 1.81319 6.56249 1.875 6.56249H8.125C8.18681 6.56249 8.24723 6.54417 8.29862 6.50983C8.35001 6.47549 8.39006 6.42669 8.41372 6.36958C8.43737 6.31248 8.44356 6.24965 8.4315 6.18903C8.41944 6.12841 8.38967 6.07273 8.34597 6.02902Z" fill="white"/>
</svg>
